<?xml version="1.0" encoding="UTF-8" standalone="no"?>
<!DOCTYPE svg PUBLIC "-//W3C//DTD SVG 1.1//EN"
 "http://www.w3.org/Graphics/SVG/1.1/DTD/svg11.dtd">
<!-- Generated by graphviz version 2.47.0 (20210316.0004)
 -->
<!-- Title: dependencies Pages: 1 -->
<svg width="1864pt" height="211pt"
 viewBox="0.00 0.00 1864.00 211.00" xmlns="http://www.w3.org/2000/svg" xmlns:xlink="http://www.w3.org/1999/xlink">
<g id="graph0" class="graph" transform="scale(1 1) rotate(0) translate(4 207)">
<title>dependencies</title>
<polygon fill="white" stroke="transparent" points="-4,4 -4,-207 1860,-207 1860,4 -4,4"/>
<text text-anchor="start" x="907.01" y="-42.4" font-family="Times-12" font-weight="bold" font-size="14.00">Legend</text>
<polygon fill="#ffffb3" stroke="transparent" points="694,-10 694,-30 714,-30 714,-10 694,-10"/>
<text text-anchor="start" x="717.63" y="-15.4" font-family="Times-12" font-size="14.00"> &#160;Declarations</text>
<polygon fill="#8dd3c7" stroke="transparent" points="807,-10 807,-30 827,-30 827,-10 807,-10"/>
<text text-anchor="start" x="830.73" y="-15.4" font-family="Times-12" font-size="14.00"> &#160;Module</text>
<polygon fill="#80b1d3" stroke="transparent" points="893,-10 893,-30 913,-30 913,-10 893,-10"/>
<text text-anchor="start" x="916.78" y="-15.4" font-family="Times-12" font-size="14.00"> &#160;Bootstrap</text>
<polygon fill="#fdb462" stroke="transparent" points="990,-10 990,-30 1010,-30 1010,-10 990,-10"/>
<text text-anchor="start" x="1013.67" y="-15.4" font-family="Times-12" font-size="14.00"> &#160;Providers</text>
<polygon fill="#fb8072" stroke="transparent" points="1086,-10 1086,-30 1106,-30 1106,-10 1086,-10"/>
<text text-anchor="start" x="1109.73" y="-15.4" font-family="Times-12" font-size="14.00"> &#160;Exports</text>
<g id="clust1" class="cluster">
<title>cluster_EstablecimientosModule</title>
<polygon fill="none" stroke="black" stroke-dasharray="1,5" points="8,-70 8,-195 1848,-195 1848,-70 8,-70"/>
</g>
<g id="clust12" class="cluster">
<title>cluster_EstablecimientosModule_imports</title>
<polygon fill="none" stroke="black" points="1499,-78 1499,-130 1840,-130 1840,-78 1499,-78"/>
</g>
<g id="clust2" class="cluster">
<title>cluster_EstablecimientosModule_declarations</title>
<polygon fill="none" stroke="black" points="16,-78 16,-130 1491,-130 1491,-78 16,-78"/>
</g>
<!-- AddPageComponent -->
<g id="node1" class="node">
<title>AddPageComponent</title>
<polygon fill="#ffffb3" stroke="black" points="1483.15,-122 1350.85,-122 1350.85,-86 1483.15,-86 1483.15,-122"/>
<text text-anchor="middle" x="1417" y="-99.8" font-family="Times,serif" font-size="14.00">AddPageComponent</text>
</g>
<!-- EstablecimientosModule -->
<g id="node10" class="node">
<title>EstablecimientosModule</title>
<polygon fill="#8dd3c7" stroke="black" points="1014.69,-187 1011.69,-191 990.69,-191 987.69,-187 859.31,-187 859.31,-151 1014.69,-151 1014.69,-187"/>
<text text-anchor="middle" x="937" y="-164.8" font-family="Times,serif" font-size="14.00">EstablecimientosModule</text>
</g>
<!-- AddPageComponent&#45;&gt;EstablecimientosModule -->
<g id="edge1" class="edge">
<title>AddPageComponent&#45;&gt;EstablecimientosModule</title>
<path fill="none" stroke="black" d="M1417,-122.27C1417,-140.56 1417,-166 1417,-166 1417,-166 1024.65,-166 1024.65,-166"/>
<polygon fill="black" stroke="black" points="1024.65,-162.5 1014.65,-166 1024.65,-169.5 1024.65,-162.5"/>
</g>
<!-- DeletePageComponent -->
<g id="node2" class="node">
<title>DeletePageComponent</title>
<polygon fill="#ffffb3" stroke="black" points="1332.58,-122 1187.42,-122 1187.42,-86 1332.58,-86 1332.58,-122"/>
<text text-anchor="middle" x="1260" y="-99.8" font-family="Times,serif" font-size="14.00">DeletePageComponent</text>
</g>
<!-- DeletePageComponent&#45;&gt;EstablecimientosModule -->
<g id="edge2" class="edge">
<title>DeletePageComponent&#45;&gt;EstablecimientosModule</title>
<path fill="none" stroke="black" d="M1260,-122.01C1260,-138.05 1260,-159 1260,-159 1260,-159 1024.78,-159 1024.78,-159"/>
<polygon fill="black" stroke="black" points="1024.78,-155.5 1014.78,-159 1024.78,-162.5 1024.78,-155.5"/>
</g>
<!-- DetailsPageComponent -->
<g id="node3" class="node">
<title>DetailsPageComponent</title>
<polygon fill="#ffffb3" stroke="black" points="1169.2,-122 1020.8,-122 1020.8,-86 1169.2,-86 1169.2,-122"/>
<text text-anchor="middle" x="1095" y="-99.8" font-family="Times,serif" font-size="14.00">DetailsPageComponent</text>
</g>
<!-- DetailsPageComponent&#45;&gt;EstablecimientosModule -->
<g id="edge3" class="edge">
<title>DetailsPageComponent&#45;&gt;EstablecimientosModule</title>
<path fill="none" stroke="black" d="M1020.76,-104C1013.5,-104 1008.77,-104 1008.77,-104 1008.77,-104 1008.77,-140.89 1008.77,-140.89"/>
<polygon fill="black" stroke="black" points="1005.27,-140.89 1008.77,-150.89 1012.27,-140.89 1005.27,-140.89"/>
</g>
<!-- EditPageComponent -->
<g id="node4" class="node">
<title>EditPageComponent</title>
<polygon fill="#ffffb3" stroke="black" points="1002.88,-122 871.12,-122 871.12,-86 1002.88,-86 1002.88,-122"/>
<text text-anchor="middle" x="937" y="-99.8" font-family="Times,serif" font-size="14.00">EditPageComponent</text>
</g>
<!-- EditPageComponent&#45;&gt;EstablecimientosModule -->
<g id="edge4" class="edge">
<title>EditPageComponent&#45;&gt;EstablecimientosModule</title>
<path fill="none" stroke="black" d="M937,-122.11C937,-122.11 937,-140.99 937,-140.99"/>
<polygon fill="black" stroke="black" points="933.5,-140.99 937,-150.99 940.5,-140.99 933.5,-140.99"/>
</g>
<!-- FavouritePageComponent -->
<g id="node5" class="node">
<title>FavouritePageComponent</title>
<polygon fill="#ffffb3" stroke="black" points="853.2,-122 690.8,-122 690.8,-86 853.2,-86 853.2,-122"/>
<text text-anchor="middle" x="772" y="-99.8" font-family="Times,serif" font-size="14.00">FavouritePageComponent</text>
</g>
<!-- FavouritePageComponent&#45;&gt;EstablecimientosModule -->
<g id="edge5" class="edge">
<title>FavouritePageComponent&#45;&gt;EstablecimientosModule</title>
<path fill="none" stroke="black" d="M853.42,-104C860.61,-104 865.23,-104 865.23,-104 865.23,-104 865.23,-140.89 865.23,-140.89"/>
<polygon fill="black" stroke="black" points="861.73,-140.89 865.23,-150.89 868.73,-140.89 861.73,-140.89"/>
</g>
<!-- LayoutPageComponent -->
<g id="node6" class="node">
<title>LayoutPageComponent</title>
<polygon fill="#ffffb3" stroke="black" points="673.2,-122 524.8,-122 524.8,-86 673.2,-86 673.2,-122"/>
<text text-anchor="middle" x="599" y="-99.8" font-family="Times,serif" font-size="14.00">LayoutPageComponent</text>
</g>
<!-- LayoutPageComponent&#45;&gt;EstablecimientosModule -->
<g id="edge6" class="edge">
<title>LayoutPageComponent&#45;&gt;EstablecimientosModule</title>
<path fill="none" stroke="black" d="M599,-122.01C599,-138.05 599,-159 599,-159 599,-159 849.03,-159 849.03,-159"/>
<polygon fill="black" stroke="black" points="849.03,-162.5 859.03,-159 849.03,-155.5 849.03,-162.5"/>
</g>
<!-- ListPageComponent -->
<g id="node7" class="node">
<title>ListPageComponent</title>
<polygon fill="#ffffb3" stroke="black" points="507.32,-122 376.68,-122 376.68,-86 507.32,-86 507.32,-122"/>
<text text-anchor="middle" x="442" y="-99.8" font-family="Times,serif" font-size="14.00">ListPageComponent</text>
</g>
<!-- ListPageComponent&#45;&gt;EstablecimientosModule -->
<g id="edge7" class="edge">
<title>ListPageComponent&#45;&gt;EstablecimientosModule</title>
<path fill="none" stroke="black" d="M442,-122.27C442,-140.56 442,-166 442,-166 442,-166 849.38,-166 849.38,-166"/>
<polygon fill="black" stroke="black" points="849.38,-169.5 859.38,-166 849.38,-162.5 849.38,-169.5"/>
</g>
<!-- SearchPageComponent -->
<g id="node8" class="node">
<title>SearchPageComponent</title>
<polygon fill="#ffffb3" stroke="black" points="359.13,-122 212.87,-122 212.87,-86 359.13,-86 359.13,-122"/>
<text text-anchor="middle" x="286" y="-99.8" font-family="Times,serif" font-size="14.00">SearchPageComponent</text>
</g>
<!-- SearchPageComponent&#45;&gt;EstablecimientosModule -->
<g id="edge8" class="edge">
<title>SearchPageComponent&#45;&gt;EstablecimientosModule</title>
<path fill="none" stroke="black" d="M286,-122.13C286,-142.57 286,-173 286,-173 286,-173 849.12,-173 849.12,-173"/>
<polygon fill="black" stroke="black" points="849.12,-176.5 859.12,-173 849.12,-169.5 849.12,-176.5"/>
</g>
<!-- SuggestionPageComponent -->
<g id="node9" class="node">
<title>SuggestionPageComponent</title>
<polygon fill="#ffffb3" stroke="black" points="194.27,-122 23.73,-122 23.73,-86 194.27,-86 194.27,-122"/>
<text text-anchor="middle" x="109" y="-99.8" font-family="Times,serif" font-size="14.00">SuggestionPageComponent</text>
</g>
<!-- SuggestionPageComponent&#45;&gt;EstablecimientosModule -->
<g id="edge9" class="edge">
<title>SuggestionPageComponent&#45;&gt;EstablecimientosModule</title>
<path fill="none" stroke="black" d="M109,-122.01C109,-144.49 109,-180 109,-180 109,-180 849.1,-180 849.1,-180"/>
<polygon fill="black" stroke="black" points="849.1,-183.5 859.1,-180 849.1,-176.5 849.1,-183.5"/>
</g>
<!-- EstablecimientosRoutingModule -->
<g id="node11" class="node">
<title>EstablecimientosRoutingModule</title>
<polygon fill="#8dd3c7" stroke="black" points="1832.31,-122 1829.31,-126 1808.31,-126 1805.31,-122 1631.69,-122 1631.69,-86 1832.31,-86 1832.31,-122"/>
<text text-anchor="middle" x="1732" y="-99.8" font-family="Times,serif" font-size="14.00">EstablecimientosRoutingModule</text>
</g>
<!-- EstablecimientosRoutingModule&#45;&gt;EstablecimientosModule -->
<g id="edge10" class="edge">
<title>EstablecimientosRoutingModule&#45;&gt;EstablecimientosModule</title>
<path fill="none" stroke="black" d="M1732,-122.01C1732,-144.49 1732,-180 1732,-180 1732,-180 1024.68,-180 1024.68,-180"/>
<polygon fill="black" stroke="black" points="1024.68,-176.5 1014.68,-180 1024.68,-183.5 1024.68,-176.5"/>
</g>
<!-- MaterialModule -->
<g id="node12" class="node">
<title>MaterialModule</title>
<polygon fill="#8dd3c7" stroke="black" points="1613.47,-122 1610.47,-126 1589.47,-126 1586.47,-122 1506.53,-122 1506.53,-86 1613.47,-86 1613.47,-122"/>
<text text-anchor="middle" x="1560" y="-99.8" font-family="Times,serif" font-size="14.00">MaterialModule</text>
</g>
<!-- MaterialModule&#45;&gt;EstablecimientosModule -->
<g id="edge11" class="edge">
<title>MaterialModule&#45;&gt;EstablecimientosModule</title>
<path fill="none" stroke="black" d="M1560,-122.13C1560,-142.57 1560,-173 1560,-173 1560,-173 1024.64,-173 1024.64,-173"/>
<polygon fill="black" stroke="black" points="1024.64,-169.5 1014.64,-173 1024.64,-176.5 1024.64,-169.5"/>
</g>
</g>
</svg>
