<?xml version="1.0" encoding="UTF-8" standalone="no"?>
<!DOCTYPE svg PUBLIC "-//W3C//DTD SVG 1.1//EN"
 "http://www.w3.org/Graphics/SVG/1.1/DTD/svg11.dtd">
<!-- Generated by graphviz version 2.47.0 (20210316.0004)
 -->
<!-- Title: dependencies Pages: 1 -->
<svg width="819pt" height="211pt"
 viewBox="0.00 0.00 819.00 211.00" xmlns="http://www.w3.org/2000/svg" xmlns:xlink="http://www.w3.org/1999/xlink">
<g id="graph0" class="graph" transform="scale(1 1) rotate(0) translate(4 207)">
<title>dependencies</title>
<polygon fill="white" stroke="transparent" points="-4,4 -4,-207 815,-207 815,4 -4,4"/>
<text text-anchor="start" x="384.51" y="-42.4" font-family="Times-12" font-weight="bold" font-size="14.00">Legend</text>
<polygon fill="#ffffb3" stroke="transparent" points="171.5,-10 171.5,-30 191.5,-30 191.5,-10 171.5,-10"/>
<text text-anchor="start" x="195.13" y="-15.4" font-family="Times-12" font-size="14.00"> &#160;Declarations</text>
<polygon fill="#8dd3c7" stroke="transparent" points="284.5,-10 284.5,-30 304.5,-30 304.5,-10 284.5,-10"/>
<text text-anchor="start" x="308.23" y="-15.4" font-family="Times-12" font-size="14.00"> &#160;Module</text>
<polygon fill="#80b1d3" stroke="transparent" points="370.5,-10 370.5,-30 390.5,-30 390.5,-10 370.5,-10"/>
<text text-anchor="start" x="394.28" y="-15.4" font-family="Times-12" font-size="14.00"> &#160;Bootstrap</text>
<polygon fill="#fdb462" stroke="transparent" points="467.5,-10 467.5,-30 487.5,-30 487.5,-10 467.5,-10"/>
<text text-anchor="start" x="491.17" y="-15.4" font-family="Times-12" font-size="14.00"> &#160;Providers</text>
<polygon fill="#fb8072" stroke="transparent" points="563.5,-10 563.5,-30 583.5,-30 583.5,-10 563.5,-10"/>
<text text-anchor="start" x="587.23" y="-15.4" font-family="Times-12" font-size="14.00"> &#160;Exports</text>
<g id="clust1" class="cluster">
<title>cluster_AuthModule</title>
<polygon fill="none" stroke="black" stroke-dasharray="1,5" points="8,-70 8,-195 803,-195 803,-70 8,-70"/>
</g>
<g id="clust2" class="cluster">
<title>cluster_AuthModule_declarations</title>
<polygon fill="none" stroke="black" points="297,-78 297,-130 795,-130 795,-78 297,-78"/>
</g>
<g id="clust6" class="cluster">
<title>cluster_AuthModule_imports</title>
<polygon fill="none" stroke="black" points="16,-78 16,-130 289,-130 289,-78 16,-78"/>
</g>
<!-- LayoutAuthComponent -->
<g id="node1" class="node">
<title>LayoutAuthComponent</title>
<polygon fill="#ffffb3" stroke="black" points="787.49,-122 638.51,-122 638.51,-86 787.49,-86 787.49,-122"/>
<text text-anchor="middle" x="713" y="-99.8" font-family="Times,serif" font-size="14.00">LayoutAuthComponent</text>
</g>
<!-- AuthModule -->
<g id="node4" class="node">
<title>AuthModule</title>
<polygon fill="#8dd3c7" stroke="black" points="426.55,-187 423.55,-191 402.55,-191 399.55,-187 339.45,-187 339.45,-151 426.55,-151 426.55,-187"/>
<text text-anchor="middle" x="383" y="-164.8" font-family="Times,serif" font-size="14.00">AuthModule</text>
</g>
<!-- LayoutAuthComponent&#45;&gt;AuthModule -->
<g id="edge1" class="edge">
<title>LayoutAuthComponent&#45;&gt;AuthModule</title>
<path fill="none" stroke="black" d="M713,-122.28C713,-143.32 713,-175 713,-175 713,-175 436.82,-175 436.82,-175"/>
<polygon fill="black" stroke="black" points="436.82,-171.5 426.82,-175 436.82,-178.5 436.82,-171.5"/>
</g>
<!-- LoginPageComponent -->
<g id="node2" class="node">
<title>LoginPageComponent</title>
<polygon fill="#ffffb3" stroke="black" points="620.99,-122 479.01,-122 479.01,-86 620.99,-86 620.99,-122"/>
<text text-anchor="middle" x="550" y="-99.8" font-family="Times,serif" font-size="14.00">LoginPageComponent</text>
</g>
<!-- LoginPageComponent&#45;&gt;AuthModule -->
<g id="edge2" class="edge">
<title>LoginPageComponent&#45;&gt;AuthModule</title>
<path fill="none" stroke="black" d="M550,-122.02C550,-139.37 550,-163 550,-163 550,-163 436.88,-163 436.88,-163"/>
<polygon fill="black" stroke="black" points="436.88,-159.5 426.88,-163 436.88,-166.5 436.88,-159.5"/>
</g>
<!-- RegisterPageComponent -->
<g id="node3" class="node">
<title>RegisterPageComponent</title>
<polygon fill="#ffffb3" stroke="black" points="460.7,-122 305.3,-122 305.3,-86 460.7,-86 460.7,-122"/>
<text text-anchor="middle" x="383" y="-99.8" font-family="Times,serif" font-size="14.00">RegisterPageComponent</text>
</g>
<!-- RegisterPageComponent&#45;&gt;AuthModule -->
<g id="edge3" class="edge">
<title>RegisterPageComponent&#45;&gt;AuthModule</title>
<path fill="none" stroke="black" d="M383,-122.11C383,-122.11 383,-140.99 383,-140.99"/>
<polygon fill="black" stroke="black" points="379.5,-140.99 383,-150.99 386.5,-140.99 379.5,-140.99"/>
</g>
<!-- AuthRoutingModule -->
<g id="node5" class="node">
<title>AuthRoutingModule</title>
<polygon fill="#8dd3c7" stroke="black" points="281.17,-122 278.17,-126 257.17,-126 254.17,-122 148.83,-122 148.83,-86 281.17,-86 281.17,-122"/>
<text text-anchor="middle" x="215" y="-99.8" font-family="Times,serif" font-size="14.00">AuthRoutingModule</text>
</g>
<!-- AuthRoutingModule&#45;&gt;AuthModule -->
<g id="edge4" class="edge">
<title>AuthRoutingModule&#45;&gt;AuthModule</title>
<path fill="none" stroke="black" d="M215,-122.02C215,-139.37 215,-163 215,-163 215,-163 329.3,-163 329.3,-163"/>
<polygon fill="black" stroke="black" points="329.3,-166.5 339.3,-163 329.3,-159.5 329.3,-166.5"/>
</g>
<!-- MaterialModule -->
<g id="node6" class="node">
<title>MaterialModule</title>
<polygon fill="#8dd3c7" stroke="black" points="130.47,-122 127.47,-126 106.47,-126 103.47,-122 23.53,-122 23.53,-86 130.47,-86 130.47,-122"/>
<text text-anchor="middle" x="77" y="-99.8" font-family="Times,serif" font-size="14.00">MaterialModule</text>
</g>
<!-- MaterialModule&#45;&gt;AuthModule -->
<g id="edge5" class="edge">
<title>MaterialModule&#45;&gt;AuthModule</title>
<path fill="none" stroke="black" d="M77,-122.28C77,-143.32 77,-175 77,-175 77,-175 329.16,-175 329.16,-175"/>
<polygon fill="black" stroke="black" points="329.16,-178.5 339.16,-175 329.16,-171.5 329.16,-178.5"/>
</g>
</g>
</svg>
