<?xml version="1.0" encoding="UTF-8" standalone="no"?>
<!DOCTYPE svg PUBLIC "-//W3C//DTD SVG 1.1//EN"
 "http://www.w3.org/Graphics/SVG/1.1/DTD/svg11.dtd">
<!-- Generated by graphviz version 2.47.0 (20210316.0004)
 -->
<!-- Title: dependencies Pages: 1 -->
<svg width="3389pt" height="211pt"
 viewBox="0.00 0.00 3389.00 211.00" xmlns="http://www.w3.org/2000/svg" xmlns:xlink="http://www.w3.org/1999/xlink">
<g id="graph0" class="graph" transform="scale(1 1) rotate(0) translate(4 207)">
<title>dependencies</title>
<polygon fill="white" stroke="transparent" points="-4,4 -4,-207 3385,-207 3385,4 -4,4"/>
<text text-anchor="start" x="1669.51" y="-42.4" font-family="Times-12" font-weight="bold" font-size="14.00">Legend</text>
<polygon fill="#ffffb3" stroke="transparent" points="1456.5,-10 1456.5,-30 1476.5,-30 1476.5,-10 1456.5,-10"/>
<text text-anchor="start" x="1480.13" y="-15.4" font-family="Times-12" font-size="14.00"> &#160;Declarations</text>
<polygon fill="#8dd3c7" stroke="transparent" points="1569.5,-10 1569.5,-30 1589.5,-30 1589.5,-10 1569.5,-10"/>
<text text-anchor="start" x="1593.23" y="-15.4" font-family="Times-12" font-size="14.00"> &#160;Module</text>
<polygon fill="#80b1d3" stroke="transparent" points="1655.5,-10 1655.5,-30 1675.5,-30 1675.5,-10 1655.5,-10"/>
<text text-anchor="start" x="1679.28" y="-15.4" font-family="Times-12" font-size="14.00"> &#160;Bootstrap</text>
<polygon fill="#fdb462" stroke="transparent" points="1752.5,-10 1752.5,-30 1772.5,-30 1772.5,-10 1752.5,-10"/>
<text text-anchor="start" x="1776.17" y="-15.4" font-family="Times-12" font-size="14.00"> &#160;Providers</text>
<polygon fill="#fb8072" stroke="transparent" points="1848.5,-10 1848.5,-30 1868.5,-30 1868.5,-10 1848.5,-10"/>
<text text-anchor="start" x="1872.23" y="-15.4" font-family="Times-12" font-size="14.00"> &#160;Exports</text>
<g id="clust1" class="cluster">
<title>cluster_ZonaAdminModule</title>
<polygon fill="none" stroke="black" stroke-dasharray="1,5" points="8,-70 8,-195 3373,-195 3373,-70 8,-70"/>
</g>
<g id="clust2" class="cluster">
<title>cluster_ZonaAdminModule_declarations</title>
<polygon fill="none" stroke="black" points="337,-78 337,-130 3365,-130 3365,-78 337,-78"/>
</g>
<g id="clust21" class="cluster">
<title>cluster_ZonaAdminModule_imports</title>
<polygon fill="none" stroke="black" points="16,-78 16,-130 329,-130 329,-78 16,-78"/>
</g>
<!-- AddCategoriaComponent -->
<g id="node1" class="node">
<title>AddCategoriaComponent</title>
<polygon fill="#ffffb3" stroke="black" points="3356.86,-122 3197.14,-122 3197.14,-86 3356.86,-86 3356.86,-122"/>
<text text-anchor="middle" x="3277" y="-99.8" font-family="Times,serif" font-size="14.00">AddCategoriaComponent</text>
</g>
<!-- ZonaAdminModule -->
<g id="node19" class="node">
<title>ZonaAdminModule</title>
<polygon fill="#8dd3c7" stroke="black" points="1678.7,-187 1675.7,-191 1654.7,-191 1651.7,-187 1551.3,-187 1551.3,-151 1678.7,-151 1678.7,-187"/>
<text text-anchor="middle" x="1615" y="-164.8" font-family="Times,serif" font-size="14.00">ZonaAdminModule</text>
</g>
<!-- AddCategoriaComponent&#45;&gt;ZonaAdminModule -->
<g id="edge1" class="edge">
<title>AddCategoriaComponent&#45;&gt;ZonaAdminModule</title>
<path fill="none" stroke="black" d="M3277,-122.15C3277,-145.76 3277,-184 3277,-184 3277,-184 1688.63,-184 1688.63,-184"/>
<polygon fill="black" stroke="black" points="1688.63,-180.5 1678.63,-184 1688.63,-187.5 1688.63,-180.5"/>
</g>
<!-- AddSugerenciaComponent -->
<g id="node2" class="node">
<title>AddSugerenciaComponent</title>
<polygon fill="#ffffb3" stroke="black" points="3178.63,-122 3011.37,-122 3011.37,-86 3178.63,-86 3178.63,-122"/>
<text text-anchor="middle" x="3095" y="-99.8" font-family="Times,serif" font-size="14.00">AddSugerenciaComponent</text>
</g>
<!-- AddSugerenciaComponent&#45;&gt;ZonaAdminModule -->
<g id="edge2" class="edge">
<title>AddSugerenciaComponent&#45;&gt;ZonaAdminModule</title>
<path fill="none" stroke="black" d="M3095,-122.01C3095,-144.49 3095,-180 3095,-180 3095,-180 1689.07,-180 1689.07,-180"/>
<polygon fill="black" stroke="black" points="1689.07,-176.5 1679.07,-180 1689.07,-183.5 1689.07,-176.5"/>
</g>
<!-- AddUsuarioComponent -->
<g id="node3" class="node">
<title>AddUsuarioComponent</title>
<polygon fill="#ffffb3" stroke="black" points="2992.76,-122 2843.24,-122 2843.24,-86 2992.76,-86 2992.76,-122"/>
<text text-anchor="middle" x="2918" y="-99.8" font-family="Times,serif" font-size="14.00">AddUsuarioComponent</text>
</g>
<!-- AddUsuarioComponent&#45;&gt;ZonaAdminModule -->
<g id="edge3" class="edge">
<title>AddUsuarioComponent&#45;&gt;ZonaAdminModule</title>
<path fill="none" stroke="black" d="M2918,-122.04C2918,-143.66 2918,-177 2918,-177 2918,-177 1688.73,-177 1688.73,-177"/>
<polygon fill="black" stroke="black" points="1688.73,-173.5 1678.73,-177 1688.73,-180.5 1688.73,-173.5"/>
</g>
<!-- AddZonaComponent -->
<g id="node4" class="node">
<title>AddZonaComponent</title>
<polygon fill="#ffffb3" stroke="black" points="2825.21,-122 2690.79,-122 2690.79,-86 2825.21,-86 2825.21,-122"/>
<text text-anchor="middle" x="2758" y="-99.8" font-family="Times,serif" font-size="14.00">AddZonaComponent</text>
</g>
<!-- AddZonaComponent&#45;&gt;ZonaAdminModule -->
<g id="edge4" class="edge">
<title>AddZonaComponent&#45;&gt;ZonaAdminModule</title>
<path fill="none" stroke="black" d="M2758,-122.13C2758,-142.57 2758,-173 2758,-173 2758,-173 1688.9,-173 1688.9,-173"/>
<polygon fill="black" stroke="black" points="1688.9,-169.5 1678.9,-173 1688.9,-176.5 1688.9,-169.5"/>
</g>
<!-- CategoriasComponent -->
<g id="node5" class="node">
<title>CategoriasComponent</title>
<polygon fill="#ffffb3" stroke="black" points="2672.7,-122 2531.3,-122 2531.3,-86 2672.7,-86 2672.7,-122"/>
<text text-anchor="middle" x="2602" y="-99.8" font-family="Times,serif" font-size="14.00">CategoriasComponent</text>
</g>
<!-- CategoriasComponent&#45;&gt;ZonaAdminModule -->
<g id="edge5" class="edge">
<title>CategoriasComponent&#45;&gt;ZonaAdminModule</title>
<path fill="none" stroke="black" d="M2602,-122.11C2602,-141.34 2602,-169 2602,-169 2602,-169 1688.62,-169 1688.62,-169"/>
<polygon fill="black" stroke="black" points="1688.62,-165.5 1678.62,-169 1688.62,-172.5 1688.62,-165.5"/>
</g>
<!-- DeleteCategoriaComponent -->
<g id="node6" class="node">
<title>DeleteCategoriaComponent</title>
<polygon fill="#ffffb3" stroke="black" points="2513.29,-122 2340.71,-122 2340.71,-86 2513.29,-86 2513.29,-122"/>
<text text-anchor="middle" x="2427" y="-99.8" font-family="Times,serif" font-size="14.00">DeleteCategoriaComponent</text>
</g>
<!-- DeleteCategoriaComponent&#45;&gt;ZonaAdminModule -->
<g id="edge6" class="edge">
<title>DeleteCategoriaComponent&#45;&gt;ZonaAdminModule</title>
<path fill="none" stroke="black" d="M2427,-122.27C2427,-140.56 2427,-166 2427,-166 2427,-166 1688.72,-166 1688.72,-166"/>
<polygon fill="black" stroke="black" points="1688.72,-162.5 1678.72,-166 1688.72,-169.5 1688.72,-162.5"/>
</g>
<!-- DeleteSugerenciaComponent -->
<g id="node7" class="node">
<title>DeleteSugerenciaComponent</title>
<polygon fill="#ffffb3" stroke="black" points="2323.06,-122 2142.94,-122 2142.94,-86 2323.06,-86 2323.06,-122"/>
<text text-anchor="middle" x="2233" y="-99.8" font-family="Times,serif" font-size="14.00">DeleteSugerenciaComponent</text>
</g>
<!-- DeleteSugerenciaComponent&#45;&gt;ZonaAdminModule -->
<g id="edge7" class="edge">
<title>DeleteSugerenciaComponent&#45;&gt;ZonaAdminModule</title>
<path fill="none" stroke="black" d="M2233,-122.03C2233,-139.06 2233,-162 2233,-162 2233,-162 1688.81,-162 1688.81,-162"/>
<polygon fill="black" stroke="black" points="1688.81,-158.5 1678.81,-162 1688.81,-165.5 1688.81,-158.5"/>
</g>
<!-- DeleteUsuarioComponent -->
<g id="node8" class="node">
<title>DeleteUsuarioComponent</title>
<polygon fill="#ffffb3" stroke="black" points="2125.18,-122 1962.82,-122 1962.82,-86 2125.18,-86 2125.18,-122"/>
<text text-anchor="middle" x="2044" y="-99.8" font-family="Times,serif" font-size="14.00">DeleteUsuarioComponent</text>
</g>
<!-- DeleteUsuarioComponent&#45;&gt;ZonaAdminModule -->
<g id="edge8" class="edge">
<title>DeleteUsuarioComponent&#45;&gt;ZonaAdminModule</title>
<path fill="none" stroke="black" d="M2044,-122.01C2044,-138.05 2044,-159 2044,-159 2044,-159 1688.76,-159 1688.76,-159"/>
<polygon fill="black" stroke="black" points="1688.76,-155.5 1678.76,-159 1688.76,-162.5 1688.76,-155.5"/>
</g>
<!-- DeleteZonaComponent -->
<g id="node9" class="node">
<title>DeleteZonaComponent</title>
<polygon fill="#ffffb3" stroke="black" points="1945.13,-122 1798.87,-122 1798.87,-86 1945.13,-86 1945.13,-122"/>
<text text-anchor="middle" x="1872" y="-99.8" font-family="Times,serif" font-size="14.00">DeleteZonaComponent</text>
</g>
<!-- DeleteZonaComponent&#45;&gt;ZonaAdminModule -->
<g id="edge9" class="edge">
<title>DeleteZonaComponent&#45;&gt;ZonaAdminModule</title>
<path fill="none" stroke="black" d="M1872,-122.12C1872,-136.78 1872,-155 1872,-155 1872,-155 1688.86,-155 1688.86,-155"/>
<polygon fill="black" stroke="black" points="1688.86,-151.5 1678.86,-155 1688.86,-158.5 1688.86,-151.5"/>
</g>
<!-- EditCategoriaComponent -->
<g id="node10" class="node">
<title>EditCategoriaComponent</title>
<polygon fill="#ffffb3" stroke="black" points="1780.59,-122 1621.41,-122 1621.41,-86 1780.59,-86 1780.59,-122"/>
<text text-anchor="middle" x="1701" y="-99.8" font-family="Times,serif" font-size="14.00">EditCategoriaComponent</text>
</g>
<!-- EditCategoriaComponent&#45;&gt;ZonaAdminModule -->
<g id="edge10" class="edge">
<title>EditCategoriaComponent&#45;&gt;ZonaAdminModule</title>
<path fill="none" stroke="black" d="M1650.03,-122.11C1650.03,-122.11 1650.03,-140.99 1650.03,-140.99"/>
<polygon fill="black" stroke="black" points="1646.53,-140.99 1650.03,-150.99 1653.53,-140.99 1646.53,-140.99"/>
</g>
<!-- EditUsuarioComponent -->
<g id="node11" class="node">
<title>EditUsuarioComponent</title>
<polygon fill="#ffffb3" stroke="black" points="1603.48,-122 1454.52,-122 1454.52,-86 1603.48,-86 1603.48,-122"/>
<text text-anchor="middle" x="1529" y="-99.8" font-family="Times,serif" font-size="14.00">EditUsuarioComponent</text>
</g>
<!-- EditUsuarioComponent&#45;&gt;ZonaAdminModule -->
<g id="edge11" class="edge">
<title>EditUsuarioComponent&#45;&gt;ZonaAdminModule</title>
<path fill="none" stroke="black" d="M1577.44,-122.11C1577.44,-122.11 1577.44,-140.99 1577.44,-140.99"/>
<polygon fill="black" stroke="black" points="1573.94,-140.99 1577.44,-150.99 1580.94,-140.99 1573.94,-140.99"/>
</g>
<!-- EditZonaComponent -->
<g id="node12" class="node">
<title>EditZonaComponent</title>
<polygon fill="#ffffb3" stroke="black" points="1436.93,-122 1303.07,-122 1303.07,-86 1436.93,-86 1436.93,-122"/>
<text text-anchor="middle" x="1370" y="-99.8" font-family="Times,serif" font-size="14.00">EditZonaComponent</text>
</g>
<!-- EditZonaComponent&#45;&gt;ZonaAdminModule -->
<g id="edge12" class="edge">
<title>EditZonaComponent&#45;&gt;ZonaAdminModule</title>
<path fill="none" stroke="black" d="M1370,-122.12C1370,-136.78 1370,-155 1370,-155 1370,-155 1541.27,-155 1541.27,-155"/>
<polygon fill="black" stroke="black" points="1541.27,-158.5 1551.27,-155 1541.27,-151.5 1541.27,-158.5"/>
</g>
<!-- InfoSugerenciaComponent -->
<g id="node13" class="node">
<title>InfoSugerenciaComponent</title>
<polygon fill="#ffffb3" stroke="black" points="1285.35,-122 1118.65,-122 1118.65,-86 1285.35,-86 1285.35,-122"/>
<text text-anchor="middle" x="1202" y="-99.8" font-family="Times,serif" font-size="14.00">InfoSugerenciaComponent</text>
</g>
<!-- InfoSugerenciaComponent&#45;&gt;ZonaAdminModule -->
<g id="edge13" class="edge">
<title>InfoSugerenciaComponent&#45;&gt;ZonaAdminModule</title>
<path fill="none" stroke="black" d="M1202,-122.01C1202,-138.05 1202,-159 1202,-159 1202,-159 1541.37,-159 1541.37,-159"/>
<polygon fill="black" stroke="black" points="1541.37,-162.5 1551.37,-159 1541.37,-155.5 1541.37,-162.5"/>
</g>
<!-- LayoutAdminComponent -->
<g id="node14" class="node">
<title>LayoutAdminComponent</title>
<polygon fill="#ffffb3" stroke="black" points="1100.88,-122 941.12,-122 941.12,-86 1100.88,-86 1100.88,-122"/>
<text text-anchor="middle" x="1021" y="-99.8" font-family="Times,serif" font-size="14.00">LayoutAdminComponent</text>
</g>
<!-- LayoutAdminComponent&#45;&gt;ZonaAdminModule -->
<g id="edge14" class="edge">
<title>LayoutAdminComponent&#45;&gt;ZonaAdminModule</title>
<path fill="none" stroke="black" d="M1021,-122.03C1021,-139.06 1021,-162 1021,-162 1021,-162 1541.15,-162 1541.15,-162"/>
<polygon fill="black" stroke="black" points="1541.15,-165.5 1551.15,-162 1541.15,-158.5 1541.15,-165.5"/>
</g>
<!-- RegistroComponent -->
<g id="node15" class="node">
<title>RegistroComponent</title>
<polygon fill="#ffffb3" stroke="black" points="923.27,-122 794.73,-122 794.73,-86 923.27,-86 923.27,-122"/>
<text text-anchor="middle" x="859" y="-99.8" font-family="Times,serif" font-size="14.00">RegistroComponent</text>
</g>
<!-- RegistroComponent&#45;&gt;ZonaAdminModule -->
<g id="edge15" class="edge">
<title>RegistroComponent&#45;&gt;ZonaAdminModule</title>
<path fill="none" stroke="black" d="M859,-122.27C859,-140.56 859,-166 859,-166 859,-166 1541.2,-166 1541.2,-166"/>
<polygon fill="black" stroke="black" points="1541.2,-169.5 1551.2,-166 1541.2,-162.5 1541.2,-169.5"/>
</g>
<!-- SugerenciasComponent -->
<g id="node16" class="node">
<title>SugerenciasComponent</title>
<polygon fill="#ffffb3" stroke="black" points="776.47,-122 627.53,-122 627.53,-86 776.47,-86 776.47,-122"/>
<text text-anchor="middle" x="702" y="-99.8" font-family="Times,serif" font-size="14.00">SugerenciasComponent</text>
</g>
<!-- SugerenciasComponent&#45;&gt;ZonaAdminModule -->
<g id="edge16" class="edge">
<title>SugerenciasComponent&#45;&gt;ZonaAdminModule</title>
<path fill="none" stroke="black" d="M702,-122.11C702,-141.34 702,-169 702,-169 702,-169 1541.16,-169 1541.16,-169"/>
<polygon fill="black" stroke="black" points="1541.16,-172.5 1551.16,-169 1541.16,-165.5 1541.16,-172.5"/>
</g>
<!-- UsuariosComponent -->
<g id="node17" class="node">
<title>UsuariosComponent</title>
<polygon fill="#ffffb3" stroke="black" points="609.59,-122 478.41,-122 478.41,-86 609.59,-86 609.59,-122"/>
<text text-anchor="middle" x="544" y="-99.8" font-family="Times,serif" font-size="14.00">UsuariosComponent</text>
</g>
<!-- UsuariosComponent&#45;&gt;ZonaAdminModule -->
<g id="edge17" class="edge">
<title>UsuariosComponent&#45;&gt;ZonaAdminModule</title>
<path fill="none" stroke="black" d="M544,-122.13C544,-142.57 544,-173 544,-173 544,-173 1541.21,-173 1541.21,-173"/>
<polygon fill="black" stroke="black" points="1541.21,-176.5 1551.21,-173 1541.21,-169.5 1541.21,-176.5"/>
</g>
<!-- ZonasComponent -->
<g id="node18" class="node">
<title>ZonasComponent</title>
<polygon fill="#ffffb3" stroke="black" points="460.55,-122 345.45,-122 345.45,-86 460.55,-86 460.55,-122"/>
<text text-anchor="middle" x="403" y="-99.8" font-family="Times,serif" font-size="14.00">ZonasComponent</text>
</g>
<!-- ZonasComponent&#45;&gt;ZonaAdminModule -->
<g id="edge18" class="edge">
<title>ZonasComponent&#45;&gt;ZonaAdminModule</title>
<path fill="none" stroke="black" d="M403,-122.04C403,-143.66 403,-177 403,-177 403,-177 1541.12,-177 1541.12,-177"/>
<polygon fill="black" stroke="black" points="1541.12,-180.5 1551.12,-177 1541.12,-173.5 1541.12,-180.5"/>
</g>
<!-- MaterialModule -->
<g id="node20" class="node">
<title>MaterialModule</title>
<polygon fill="#8dd3c7" stroke="black" points="321.47,-122 318.47,-126 297.47,-126 294.47,-122 214.53,-122 214.53,-86 321.47,-86 321.47,-122"/>
<text text-anchor="middle" x="268" y="-99.8" font-family="Times,serif" font-size="14.00">MaterialModule</text>
</g>
<!-- MaterialModule&#45;&gt;ZonaAdminModule -->
<g id="edge19" class="edge">
<title>MaterialModule&#45;&gt;ZonaAdminModule</title>
<path fill="none" stroke="black" d="M268,-122.01C268,-144.49 268,-180 268,-180 268,-180 1541.39,-180 1541.39,-180"/>
<polygon fill="black" stroke="black" points="1541.39,-183.5 1551.39,-180 1541.39,-176.5 1541.39,-183.5"/>
</g>
<!-- ZonaAdminRoutingModule -->
<g id="node21" class="node">
<title>ZonaAdminRoutingModule</title>
<polygon fill="#8dd3c7" stroke="black" points="196.32,-122 193.32,-126 172.32,-126 169.32,-122 23.68,-122 23.68,-86 196.32,-86 196.32,-122"/>
<text text-anchor="middle" x="110" y="-99.8" font-family="Times,serif" font-size="14.00">ZonaAdminRoutingModule</text>
</g>
<!-- ZonaAdminRoutingModule&#45;&gt;ZonaAdminModule -->
<g id="edge20" class="edge">
<title>ZonaAdminRoutingModule&#45;&gt;ZonaAdminModule</title>
<path fill="none" stroke="black" d="M110,-122.15C110,-145.76 110,-184 110,-184 110,-184 1541.29,-184 1541.29,-184"/>
<polygon fill="black" stroke="black" points="1541.29,-187.5 1551.29,-184 1541.29,-180.5 1541.29,-187.5"/>
</g>
</g>
</svg>
